<?xml version="1.0" encoding="utf-8"?>
<!-- Svg Vector Icons : http://www.onlinewebfonts.com/icon -->
<!DOCTYPE svg PUBLIC "-//W3C//DTD SVG 1.1//EN" "http://www.w3.org/Graphics/SVG/1.1/DTD/svg11.dtd">
<svg version="1.1" xmlns="http://www.w3.org/2000/svg" xmlns:xlink="http://www.w3.org/1999/xlink" x="0px" y="0px" viewBox="0 0 1000 1000" enable-background="new 0 0 1000 1000" xml:space="preserve">
<metadata> Svg Vector Icons : http://www.onlinewebfonts.com/icon </metadata>
<g><g transform="translate(0.000000,512.000000) scale(0.100000,-0.100000)"><path d="M8058.8,5002.9c-281.9-55.6-500.5-176.4-730.7-404.6c-172.6-170.7-274.3-312.6-389.3-538.9c-94-187.9-159.2-360.5-201.4-538.9l-34.5-138.1l-1047.1-5.8l-1049-5.8l-153.4-51.8c-324.1-111.2-247.4-42.2-2274.5-2067.4L305.3-618.1l-78.6-163c-187.9-381.6-164.9-826.6,57.5-1171.8c120.8-186,2514.2-2562.2,2683-2663.8c345.2-205.2,759.4-218.6,1131.5-36.4l163,78.6l1869.8,1873.7C7535.3-1297,8018.5-802.2,8066.5-719.7c34.5,61.4,90.1,186,124.7,278.1l59.4,168.8l5.7,1400c5.8,1350.1,3.8,1403.8-32.6,1524.6c-53.7,172.6-155.3,335.6-283.8,456.4c-118.9,109.3-379.7,253.1-406.6,222.5c-42.2-46-65.2-326-76.7-918.6l-11.5-632.9l-55.6-101.6c-65.2-115.1-163-212.9-283.8-276.2c-69-36.4-111.2-44.1-264.6-44.1c-153.4,0-195.6,7.7-264.6,44.1c-120.8,63.3-218.6,161.1-283.8,276.2c-49.9,92.1-55.6,118.9-55.6,283.8c0,197.5,24.9,268.5,138.1,402.7c57.5,69,207.1,172.6,249.3,172.6c19.2,0,24.9-71,24.9-327.9v-327.9l55.6-55.6c78.6-76.7,193.7-78.6,270.4-1.9l53.7,53.7l9.6,613.7c11.5,648.2,28.8,807.4,128.5,1098.9c186,552.3,538.9,934,939.7,1020.3c429.6,92.1,886-195.6,1148.8-724.9c429.6-861.1,287.7-2061.6-314.5-2642.7c-65.2-63.3-149.6-132.3-187.9-153.4l-71-38.4V835.6c0-145.7,7.7-216.7,21.1-216.7c46,0,287.7,141.9,404.6,237.8c803.5,663.5,1037.5,2126.8,508.2,3185.4c-164.9,333.7-441.1,646.3-705.7,801.6C8657.2,4991.4,8327.3,5054.7,8058.8,5002.9z M4781.3,686c76.7-26.8,182.2-72.9,232.1-103.6l92-57.5l57.5,55.6c113.2,109.3,232.1,118.9,320.3,23c92.1-97.8,80.5-226.3-28.8-327.9l-49.9-44.1l57.5-94c184.1-297.2,201.4-688.5,44.1-939.7c-90.1-143.8-195.6-184.1-314.5-122.7c-59.5,30.7-115.1,117-115.1,178.3c0,21.1,26.9,84.4,57.5,143.8c113.2,212.9,55.6,454.5-163,682.7c-140,147.7-283.8,218.6-460.3,228.2c-109.3,3.8-145.8-1.9-197.5-32.6c-207.1-130.4-174.5-362.5,111.2-788.2c230.1-341.4,343.3-655.9,316.4-872.6c-30.7-226.3-178.3-427.7-391.2-533.1c-118.9-57.5-136.2-61.4-337.5-61.4c-232.1,0-349,32.6-525.5,141.9l-94,57.5l-44.1-49.9c-97.8-103.5-197.5-126.6-297.3-65.2c-124.7,74.8-132.3,235.9-19.2,345.2l65.2,63.3l-55.6,88.2C2919.2-1203,2859.7-944.1,2892.3-737c36.4,235.9,180.3,435.3,310.7,435.3c153.4,0,264.7-159.2,197.5-285.7c-17.3-32.6-44.1-86.3-61.4-118.9c-47.9-90.1-30.7-287.7,36.4-423.8c69-138.1,226.3-297.3,370.1-370.1c157.3-80.5,351-90.1,448.8-24.9c197.5,132.3,168.8,345.2-101.6,755.6C3849.3-401.4,3763-182.8,3764.9,62.7c1.9,197.5,42.2,301.1,174.5,443C4144.6,726.3,4461.1,793.4,4781.3,686z"/></g></g>
</svg>