<?xml version="1.0" encoding="utf-8"?>
<!-- Svg Vector Icons : http://www.onlinewebfonts.com/icon -->
<!DOCTYPE svg PUBLIC "-//W3C//DTD SVG 1.1//EN" "http://www.w3.org/Graphics/SVG/1.1/DTD/svg11.dtd">
<svg version="1.1" xmlns="http://www.w3.org/2000/svg" xmlns:xlink="http://www.w3.org/1999/xlink" x="0px" y="0px" viewBox="0 0 1000 1000" enable-background="new 0 0 1000 1000" xml:space="preserve">
<metadata> Svg Vector Icons : http://www.onlinewebfonts.com/icon </metadata>
<g><g transform="translate(0.000000,432.000000) scale(0.100000,-0.100000)"><path d="M1462.5,3405.2c-57.4-15.3-134-45.9-172.2-68.9c-97.6-57.4-244.9-202.8-298.5-296.6c-99.5-168.4-105.2-225.8-105.2-1224.7V890.8h189.4h191.4l5.7,924.3c5.7,1018,3.8,995.1,130.1,1117.5c34.4,34.4,93.8,72.7,132,86.1c101.4,36.4,6829.6,36.4,6931,0c38.3-13.4,97.6-51.7,132.1-86.1c130.1-126.3,124.4-34.4,130.1-1710.8l5.7-1517.5h189.5h191.4v1517.5c0,1643.8,0,1640-105.3,1817.9c-53.6,93.8-200.9,239.2-298.5,296.6c-174.2,103.3-9.6,99.5-3720,97.6C2053.8,3433.9,1550.5,3430.1,1462.5,3405.2z"/><path d="M1795.4,2634c-21-9.6-55.5-36.4-76.5-59.3c-36.4-40.2-38.3-72.7-44-863l-5.7-820.9h193.3h191.4l3.8,685.1l5.7,683.2h2937.4h2937.4l5.7-1276.4l3.8-1278.3H8139h191.4l-3.8,1416.1l-5.7,1416.1l-53.6,51.7l-51.7,53.6l-3191.9,3.8C3268.9,2647.4,1816.5,2641.7,1795.4,2634z"/><path d="M417.7,682.2C274.1,645.8,168.9,552,123,414.3c-30.6-91.9-30.6-4820.3,0-4929.4c28.7-99.5,156.9-227.7,256.4-256.4c109.1-30.6,3861.6-30.6,3953.5,0c103.3,34.5,181.8,105.2,229.6,202.9l45.9,91.8v2401.6c0,1320.4-7.7,2434.1-15.3,2474.3c-17.2,82.3-122.5,208.6-212.4,258.3c-53.6,30.6-218.1,32.5-1982.5,36.4C1340,693.7,450.2,689.8,417.7,682.2z M4212.3-2050.4l-5.7-2349.9H2350.4H494.2l-5.7,2325c-1.9,1278.3,0,2336.5,5.7,2349.9c5.7,17.2,398,23,1865.8,23h1856.2L4212.3-2050.4z"/><path d="M817.6,87c-23-7.7-59.3-40.2-82.3-68.9l-40.2-51.7v-1823.7v-1825.6l55.5-61.2l55.5-63.1l1513.7-5.7c1685.9-5.7,1622.7-9.6,1678.2,120.6c23,57.4,26.8,311.9,23,1875.3L4015.2-8.6L3961.6,43L3910,96.6l-1527,3.8C1544.8,102.3,838.6,96.6,817.6,87z M3622.9-1855.3v-1559.6H2350.4H1077.8v1559.6v1559.6h1272.5h1272.5V-1855.3z"/><path d="M2260.4-3941.1c-166.5-93.8-95.7-354,93.8-354c122.5,1.9,210.5,103.3,189.4,218.2C2520.7-3950.6,2369.5-3879.8,2260.4-3941.1z"/><path d="M7201.3-517.7c-88-38.3-147.3-95.7-197.1-189.4l-42.1-76.5v-1856.2V-4496l42.1-80.4c47.8-89.9,135.9-160.7,233.5-195.2c89.9-28.7,2275.3-30.6,2384.3,0c99.5,28.7,227.7,156.9,256.4,256.4c28.7,103.3,28.7,3643.5,0,3746.8c-24.9,93.8-120.6,200.9-218.2,245c-70.8,32.5-155,36.3-1234.3,34.4C7434.8-489,7258.7-492.8,7201.3-517.7z M9507.2-2639.8v-1760.5H8435.6H7364l-5.7,1766.2l-3.8,1764.3l1075.4-3.8l1077.4-5.7V-2639.8z"/><path d="M7706.5-1074.5c-23-3.8-65.1-34.4-95.7-65l-55.5-57.4v-1251.5v-1253.4l53.6-51.7l51.7-53.6h767.3h767.4l55.5,63.1l55.5,61.2V-2458c0,731-7.7,1241.9-19.1,1270.6c-9.6,26.8-40.2,63.1-70.8,82.3c-47.8,30.6-112.9,34.4-761.6,36.4C8066.3-1066.9,7727.6-1068.8,7706.5-1074.5z M8923.6-2438.9v-975.9h-488h-488v975.9v975.9h488h488V-2438.9z"/><path d="M8299.8-3977.4c-68.9-68.9-82.3-134-44-208.6c91.9-179.9,361.7-122.5,361.7,76.5C8615.5-3931.5,8426-3851.1,8299.8-3977.4z"/><path d="M4809.4-2247.5v-191.4h975.9h975.9v191.4v191.4h-975.9h-975.9V-2247.5z"/><path d="M5785.3-3127.8v-497.5h488h488v200.9v200.9h-296.6H6168v95.7v95.7h296.6h296.6v200.9v200.9h-488h-488V-3127.8z"/><path d="M4809.4-4008v-191.4h975.9h975.9v191.4v191.4h-975.9h-975.9V-4008z"/></g></g>
</svg>